<?xml version="1.0" encoding="utf-8"?>
<!-- Generator: Adobe Illustrator 15.0.0, SVG Export Plug-In . SVG Version: 6.00 Build 0)  -->
<!DOCTYPE svg PUBLIC "-//W3C//DTD SVG 1.1//EN" "http://www.w3.org/Graphics/SVG/1.1/DTD/svg11.dtd">
<svg version="1.1" id="レイヤー_1" xmlns="http://www.w3.org/2000/svg" xmlns:xlink="http://www.w3.org/1999/xlink" x="0px"
	 y="0px" width="272.128px" height="68.645px" viewBox="22.476 50.927 272.128 68.645"
	 enable-background="new 22.476 50.927 272.128 68.645" xml:space="preserve">
<rect x="22.476" y="50.927" width="272.128" height="68.645"/>
<text transform="matrix(1 0 0 1 97.2966 95.4575)" fill="#FFFFFF" font-family="'GaramondPremrPro-Med'" font-size="33.9565">Graphic Arts </text>
<g>
	<circle fill="#FFFFFF" cx="60.411" cy="85.225" r="19.692"/>
	<g>
		<path d="M58.441,99.591c-3.052,0-7.57-1.117-7.57-4.67c0-1.93,1.506-3.053,3.708-4.211c0.038-0.117,0.076-0.117,0.038-0.272
			c-1.968-0.81-2.857-2.237-2.857-3.86c0-0.542,0.116-1.275,0.272-1.661c0.927-0.618,2.394-1.699,3.319-2.433
			c-1.932-1.042-3.436-2.819-3.436-5.405c0-3.823,3.245-6.218,7.491-6.218c1.506,0,2.859,0.347,4.094,0.966l5.753-0.271
			c0.309,0.117,0.309,0.385,0.309,1.082c0,0.694,0,1.081-0.309,1.196l-3.167-0.193c-0.116,0.076-0.193,0.156-0.232,0.271
			c0.619,0.81,1.16,1.891,1.16,3.319c0,3.825-3.088,6.258-7.454,6.258c-0.85,0-1.776-0.078-2.394-0.271
			c-0.426-0.076-0.501,0.041-0.927,0.347c-0.54,0.465-0.734,0.889-0.734,1.392c0,1.043,1.044,1.623,2.55,1.623
			c2.123,0,3.862-0.117,5.986-0.117c3.437,0,5.909,1.468,5.909,4.791C69.949,95.613,65.662,99.591,58.441,99.591z M62.341,91.057
			h-5.214c-0.616,0-0.848,0.076-1.234,0.5c-0.502,0.541-0.812,1.351-0.812,2.126c0,2.471,2.665,3.819,5.368,3.819
			c3.437,0,5.098-1.737,5.098-3.706C65.547,91.943,64.078,91.057,62.341,91.057z M59.291,72.481c-2.047,0-2.394,2.201-2.394,4.519
			c0,2.434,0.694,4.867,2.742,4.867c2.085,0,2.394-2.203,2.394-4.557C62.033,74.914,61.337,72.481,59.291,72.481z"/>
	</g>
</g>
</svg>
